<svg xmlns="http://www.w3.org/2000/svg" xmlns:xlink="http://www.w3.org/1999/xlink" width="200" zoomAndPan="magnify" viewBox="0 0 150 30.000001" height="40" preserveAspectRatio="xMidYMid meet" version="1.0"><defs><g/></defs><g fill="#ffffff" fill-opacity="1"><g transform="translate(5.912296, 18.640594)"><g><path d="M 10.109375 0 L 10.09375 -5.890625 L 7.203125 -1.03125 L 6.171875 -1.03125 L 3.296875 -5.765625 L 3.296875 0 L 1.171875 0 L 1.171875 -9.828125 L 3.046875 -9.828125 L 6.71875 -3.71875 L 10.34375 -9.828125 L 12.203125 -9.828125 L 12.234375 0 Z M 10.109375 0 "/></g></g></g><g fill="#ffffff" fill-opacity="1"><g transform="translate(19.309492, 18.640594)"><g><path d="M 7.640625 -2.109375 L 3.078125 -2.109375 L 2.203125 0 L -0.125 0 L 4.25 -9.828125 L 6.5 -9.828125 L 10.890625 0 L 8.5 0 Z M 6.921875 -3.828125 L 5.359375 -7.59375 L 3.796875 -3.828125 Z M 6.921875 -3.828125 "/></g></g></g><g fill="#ffffff" fill-opacity="1"><g transform="translate(30.055306, 18.640594)"><g><path d="M 7.421875 0 L 5.53125 -2.734375 L 3.4375 -2.734375 L 3.4375 0 L 1.171875 0 L 1.171875 -9.828125 L 5.421875 -9.828125 C 6.285156 -9.828125 7.035156 -9.679688 7.671875 -9.390625 C 8.316406 -9.097656 8.8125 -8.6875 9.15625 -8.15625 C 9.507812 -7.625 9.6875 -6.992188 9.6875 -6.265625 C 9.6875 -5.523438 9.507812 -4.890625 9.15625 -4.359375 C 8.800781 -3.835938 8.300781 -3.4375 7.65625 -3.15625 L 9.859375 0 Z M 7.375 -6.265625 C 7.375 -6.804688 7.195312 -7.222656 6.84375 -7.515625 C 6.488281 -7.816406 5.972656 -7.96875 5.296875 -7.96875 L 3.4375 -7.96875 L 3.4375 -4.546875 L 5.296875 -4.546875 C 5.972656 -4.546875 6.488281 -4.691406 6.84375 -4.984375 C 7.195312 -5.285156 7.375 -5.710938 7.375 -6.265625 Z M 7.375 -6.265625 "/></g></g></g><g fill="#ffffff" fill-opacity="1"><g transform="translate(40.366229, 18.640594)"><g><path d="M 5.859375 0.171875 C 4.859375 0.171875 3.953125 -0.046875 3.140625 -0.484375 C 2.335938 -0.921875 1.703125 -1.523438 1.234375 -2.296875 C 0.773438 -3.066406 0.546875 -3.9375 0.546875 -4.90625 C 0.546875 -5.882812 0.773438 -6.757812 1.234375 -7.53125 C 1.703125 -8.300781 2.335938 -8.898438 3.140625 -9.328125 C 3.953125 -9.765625 4.863281 -9.984375 5.875 -9.984375 C 6.726562 -9.984375 7.5 -9.832031 8.1875 -9.53125 C 8.875 -9.238281 9.453125 -8.8125 9.921875 -8.25 L 8.453125 -6.90625 C 7.796875 -7.664062 6.972656 -8.046875 5.984375 -8.046875 C 5.378906 -8.046875 4.835938 -7.910156 4.359375 -7.640625 C 3.878906 -7.378906 3.503906 -7.007812 3.234375 -6.53125 C 2.972656 -6.0625 2.84375 -5.519531 2.84375 -4.90625 C 2.84375 -4.300781 2.972656 -3.757812 3.234375 -3.28125 C 3.503906 -2.800781 3.878906 -2.425781 4.359375 -2.15625 C 4.835938 -1.894531 5.378906 -1.765625 5.984375 -1.765625 C 6.972656 -1.765625 7.796875 -2.15625 8.453125 -2.9375 L 9.921875 -1.578125 C 9.453125 -1.015625 8.867188 -0.582031 8.171875 -0.28125 C 7.484375 0.0195312 6.710938 0.171875 5.859375 0.171875 Z M 5.859375 0.171875 "/></g></g></g><g fill="#ffffff" fill-opacity="1"><g transform="translate(50.438654, 18.640594)"><g><path d="M 5.921875 0.171875 C 4.898438 0.171875 3.976562 -0.046875 3.15625 -0.484375 C 2.34375 -0.929688 1.703125 -1.539062 1.234375 -2.3125 C 0.773438 -3.082031 0.546875 -3.945312 0.546875 -4.90625 C 0.546875 -5.875 0.773438 -6.742188 1.234375 -7.515625 C 1.703125 -8.285156 2.34375 -8.890625 3.15625 -9.328125 C 3.976562 -9.765625 4.898438 -9.984375 5.921875 -9.984375 C 6.941406 -9.984375 7.859375 -9.765625 8.671875 -9.328125 C 9.484375 -8.890625 10.125 -8.285156 10.59375 -7.515625 C 11.0625 -6.742188 11.296875 -5.875 11.296875 -4.90625 C 11.296875 -3.945312 11.0625 -3.082031 10.59375 -2.3125 C 10.125 -1.539062 9.484375 -0.929688 8.671875 -0.484375 C 7.859375 -0.046875 6.941406 0.171875 5.921875 0.171875 Z M 5.921875 -1.765625 C 6.503906 -1.765625 7.023438 -1.894531 7.484375 -2.15625 C 7.953125 -2.425781 8.320312 -2.800781 8.59375 -3.28125 C 8.863281 -3.757812 9 -4.300781 9 -4.90625 C 9 -5.519531 8.863281 -6.0625 8.59375 -6.53125 C 8.320312 -7.007812 7.953125 -7.378906 7.484375 -7.640625 C 7.023438 -7.910156 6.503906 -8.046875 5.921875 -8.046875 C 5.335938 -8.046875 4.8125 -7.910156 4.34375 -7.640625 C 3.875 -7.378906 3.503906 -7.007812 3.234375 -6.53125 C 2.972656 -6.0625 2.84375 -5.519531 2.84375 -4.90625 C 2.84375 -4.300781 2.972656 -3.757812 3.234375 -3.28125 C 3.503906 -2.800781 3.875 -2.425781 4.34375 -2.15625 C 4.8125 -1.894531 5.335938 -1.765625 5.921875 -1.765625 Z M 5.921875 -1.765625 "/></g></g></g><g fill="#ffffff" fill-opacity="1"><g transform="translate(62.278682, 18.640594)"><g><path d="M 4.390625 0.171875 C 3.617188 0.171875 2.867188 0.0664062 2.140625 -0.140625 C 1.410156 -0.359375 0.828125 -0.632812 0.390625 -0.96875 L 1.171875 -2.6875 C 1.585938 -2.375 2.082031 -2.125 2.65625 -1.9375 C 3.238281 -1.75 3.820312 -1.65625 4.40625 -1.65625 C 5.050781 -1.65625 5.523438 -1.75 5.828125 -1.9375 C 6.140625 -2.132812 6.296875 -2.390625 6.296875 -2.703125 C 6.296875 -2.941406 6.203125 -3.132812 6.015625 -3.28125 C 5.835938 -3.4375 5.601562 -3.5625 5.3125 -3.65625 C 5.03125 -3.75 4.648438 -3.851562 4.171875 -3.96875 C 3.421875 -4.144531 2.804688 -4.320312 2.328125 -4.5 C 1.847656 -4.675781 1.4375 -4.960938 1.09375 -5.359375 C 0.757812 -5.753906 0.59375 -6.28125 0.59375 -6.9375 C 0.59375 -7.5 0.742188 -8.007812 1.046875 -8.46875 C 1.359375 -8.9375 1.820312 -9.304688 2.4375 -9.578125 C 3.0625 -9.847656 3.828125 -9.984375 4.734375 -9.984375 C 5.359375 -9.984375 5.96875 -9.910156 6.5625 -9.765625 C 7.164062 -9.617188 7.691406 -9.40625 8.140625 -9.125 L 7.4375 -7.390625 C 6.53125 -7.910156 5.625 -8.171875 4.71875 -8.171875 C 4.082031 -8.171875 3.609375 -8.066406 3.296875 -7.859375 C 2.992188 -7.648438 2.84375 -7.378906 2.84375 -7.046875 C 2.84375 -6.703125 3.019531 -6.445312 3.375 -6.28125 C 3.726562 -6.125 4.265625 -5.96875 4.984375 -5.8125 C 5.734375 -5.632812 6.34375 -5.457031 6.8125 -5.28125 C 7.289062 -5.101562 7.703125 -4.820312 8.046875 -4.4375 C 8.390625 -4.050781 8.5625 -3.53125 8.5625 -2.875 C 8.5625 -2.3125 8.40625 -1.796875 8.09375 -1.328125 C 7.78125 -0.867188 7.304688 -0.503906 6.671875 -0.234375 C 6.046875 0.0351562 5.285156 0.171875 4.390625 0.171875 Z M 4.390625 0.171875 "/></g></g></g><g fill="#52796f" fill-opacity="1"><g transform="translate(71.234876, 18.640594)"><g/></g></g><g fill="#ffffff" fill-opacity="1"><g transform="translate(75.215471, 18.640594)"><g><path d="M 8.765625 -1.828125 L 8.765625 0 L 1.171875 0 L 1.171875 -9.828125 L 8.59375 -9.828125 L 8.59375 -8 L 3.421875 -8 L 3.421875 -5.859375 L 7.984375 -5.859375 L 7.984375 -4.09375 L 3.421875 -4.09375 L 3.421875 -1.828125 Z M 8.765625 -1.828125 "/></g></g></g><g fill="#ffffff" fill-opacity="1"><g transform="translate(84.53036, 18.640594)"><g><path d="M 7.359375 0 L 4.984375 -3.40625 L 2.65625 0 L 0.046875 0 L 3.671875 -5 L 0.21875 -9.828125 L 2.8125 -9.828125 L 5.0625 -6.640625 L 7.28125 -9.828125 L 9.734375 -9.828125 L 6.3125 -5.078125 L 9.96875 0 Z M 7.359375 0 "/></g></g></g><g fill="#ffffff" fill-opacity="1"><g transform="translate(94.238032, 18.640594)"><g><path d="M 5.421875 -9.828125 C 6.285156 -9.828125 7.035156 -9.679688 7.671875 -9.390625 C 8.316406 -9.097656 8.8125 -8.6875 9.15625 -8.15625 C 9.507812 -7.625 9.6875 -6.992188 9.6875 -6.265625 C 9.6875 -5.535156 9.507812 -4.898438 9.15625 -4.359375 C 8.8125 -3.828125 8.316406 -3.414062 7.671875 -3.125 C 7.035156 -2.84375 6.285156 -2.703125 5.421875 -2.703125 L 3.4375 -2.703125 L 3.4375 0 L 1.171875 0 L 1.171875 -9.828125 Z M 5.296875 -4.5625 C 5.972656 -4.5625 6.488281 -4.707031 6.84375 -5 C 7.195312 -5.289062 7.375 -5.710938 7.375 -6.265625 C 7.375 -6.804688 7.195312 -7.222656 6.84375 -7.515625 C 6.488281 -7.816406 5.972656 -7.96875 5.296875 -7.96875 L 3.4375 -7.96875 L 3.4375 -4.5625 Z M 5.296875 -4.5625 "/></g></g></g><g fill="#ffffff" fill-opacity="1"><g transform="translate(104.506871, 18.640594)"><g><path d="M 5.921875 0.171875 C 4.898438 0.171875 3.976562 -0.046875 3.15625 -0.484375 C 2.34375 -0.929688 1.703125 -1.539062 1.234375 -2.3125 C 0.773438 -3.082031 0.546875 -3.945312 0.546875 -4.90625 C 0.546875 -5.875 0.773438 -6.742188 1.234375 -7.515625 C 1.703125 -8.285156 2.34375 -8.890625 3.15625 -9.328125 C 3.976562 -9.765625 4.898438 -9.984375 5.921875 -9.984375 C 6.941406 -9.984375 7.859375 -9.765625 8.671875 -9.328125 C 9.484375 -8.890625 10.125 -8.285156 10.59375 -7.515625 C 11.0625 -6.742188 11.296875 -5.875 11.296875 -4.90625 C 11.296875 -3.945312 11.0625 -3.082031 10.59375 -2.3125 C 10.125 -1.539062 9.484375 -0.929688 8.671875 -0.484375 C 7.859375 -0.046875 6.941406 0.171875 5.921875 0.171875 Z M 5.921875 -1.765625 C 6.503906 -1.765625 7.023438 -1.894531 7.484375 -2.15625 C 7.953125 -2.425781 8.320312 -2.800781 8.59375 -3.28125 C 8.863281 -3.757812 9 -4.300781 9 -4.90625 C 9 -5.519531 8.863281 -6.0625 8.59375 -6.53125 C 8.320312 -7.007812 7.953125 -7.378906 7.484375 -7.640625 C 7.023438 -7.910156 6.503906 -8.046875 5.921875 -8.046875 C 5.335938 -8.046875 4.8125 -7.910156 4.34375 -7.640625 C 3.875 -7.378906 3.503906 -7.007812 3.234375 -6.53125 C 2.972656 -6.0625 2.84375 -5.519531 2.84375 -4.90625 C 2.84375 -4.300781 2.972656 -3.757812 3.234375 -3.28125 C 3.503906 -2.800781 3.875 -2.425781 4.34375 -2.15625 C 4.8125 -1.894531 5.335938 -1.765625 5.921875 -1.765625 Z M 5.921875 -1.765625 "/></g></g></g><g fill="#ffffff" fill-opacity="1"><g transform="translate(116.346899, 18.640594)"><g><path d="M 7.421875 0 L 5.53125 -2.734375 L 3.4375 -2.734375 L 3.4375 0 L 1.171875 0 L 1.171875 -9.828125 L 5.421875 -9.828125 C 6.285156 -9.828125 7.035156 -9.679688 7.671875 -9.390625 C 8.316406 -9.097656 8.8125 -8.6875 9.15625 -8.15625 C 9.507812 -7.625 9.6875 -6.992188 9.6875 -6.265625 C 9.6875 -5.523438 9.507812 -4.890625 9.15625 -4.359375 C 8.800781 -3.835938 8.300781 -3.4375 7.65625 -3.15625 L 9.859375 0 Z M 7.375 -6.265625 C 7.375 -6.804688 7.195312 -7.222656 6.84375 -7.515625 C 6.488281 -7.816406 5.972656 -7.96875 5.296875 -7.96875 L 3.4375 -7.96875 L 3.4375 -4.546875 L 5.296875 -4.546875 C 5.972656 -4.546875 6.488281 -4.691406 6.84375 -4.984375 C 7.195312 -5.285156 7.375 -5.710938 7.375 -6.265625 Z M 7.375 -6.265625 "/></g></g></g><g fill="#ffffff" fill-opacity="1"><g transform="translate(126.517525, 18.640594)"><g><path d="M 3.203125 -7.96875 L 0.0625 -7.96875 L 0.0625 -9.828125 L 8.609375 -9.828125 L 8.609375 -7.96875 L 5.46875 -7.96875 L 5.46875 0 L 3.203125 0 Z M 3.203125 -7.96875 "/></g></g></g><g fill="#ffffff" fill-opacity="1"><g transform="translate(135.116974, 18.640594)"><g><path d="M 4.390625 0.171875 C 3.617188 0.171875 2.867188 0.0664062 2.140625 -0.140625 C 1.410156 -0.359375 0.828125 -0.632812 0.390625 -0.96875 L 1.171875 -2.6875 C 1.585938 -2.375 2.082031 -2.125 2.65625 -1.9375 C 3.238281 -1.75 3.820312 -1.65625 4.40625 -1.65625 C 5.050781 -1.65625 5.523438 -1.75 5.828125 -1.9375 C 6.140625 -2.132812 6.296875 -2.390625 6.296875 -2.703125 C 6.296875 -2.941406 6.203125 -3.132812 6.015625 -3.28125 C 5.835938 -3.4375 5.601562 -3.5625 5.3125 -3.65625 C 5.03125 -3.75 4.648438 -3.851562 4.171875 -3.96875 C 3.421875 -4.144531 2.804688 -4.320312 2.328125 -4.5 C 1.847656 -4.675781 1.4375 -4.960938 1.09375 -5.359375 C 0.757812 -5.753906 0.59375 -6.28125 0.59375 -6.9375 C 0.59375 -7.5 0.742188 -8.007812 1.046875 -8.46875 C 1.359375 -8.9375 1.820312 -9.304688 2.4375 -9.578125 C 3.0625 -9.847656 3.828125 -9.984375 4.734375 -9.984375 C 5.359375 -9.984375 5.96875 -9.910156 6.5625 -9.765625 C 7.164062 -9.617188 7.691406 -9.40625 8.140625 -9.125 L 7.4375 -7.390625 C 6.53125 -7.910156 5.625 -8.171875 4.71875 -8.171875 C 4.082031 -8.171875 3.609375 -8.066406 3.296875 -7.859375 C 2.992188 -7.648438 2.84375 -7.378906 2.84375 -7.046875 C 2.84375 -6.703125 3.019531 -6.445312 3.375 -6.28125 C 3.726562 -6.125 4.265625 -5.96875 4.984375 -5.8125 C 5.734375 -5.632812 6.34375 -5.457031 6.8125 -5.28125 C 7.289062 -5.101562 7.703125 -4.820312 8.046875 -4.4375 C 8.390625 -4.050781 8.5625 -3.53125 8.5625 -2.875 C 8.5625 -2.3125 8.40625 -1.796875 8.09375 -1.328125 C 7.78125 -0.867188 7.304688 -0.503906 6.671875 -0.234375 C 6.046875 0.0351562 5.285156 0.171875 4.390625 0.171875 Z M 4.390625 0.171875 "/></g></g></g></svg>